<svg width="32" height="41" viewBox="0 0 32 41" fill="none" xmlns="http://www.w3.org/2000/svg">
<g id="Frame">
<path id="Vector" d="M2.96677 11.7422C2.96677 25.5489 11.8223 36.7422 22.7452 36.7422H25.712C26.4989 36.7422 27.2535 36.3471 27.8098 35.6438C28.3662 34.9406 28.6788 33.9867 28.6788 32.9922V30.7055C28.6788 29.8455 28.216 29.0955 27.5554 28.8872L21.7234 27.0439C21.1432 26.8605 20.534 27.1355 20.1767 27.7389L18.8977 29.8939C18.5258 30.5205 17.8837 30.7972 17.3022 30.5272C15.1436 29.5241 13.1832 27.9398 11.5569 25.8842C9.93065 23.8286 8.67731 21.3507 7.8837 18.6222C7.67009 17.8872 7.88897 17.0755 8.38475 16.6055L10.0897 14.9889C10.5683 14.5372 10.7845 13.7655 10.6395 13.0339L9.18116 5.66219C9.10092 5.25668 8.91577 4.89669 8.65513 4.63942C8.39449 4.38214 8.07331 4.24233 7.74261 4.24219H5.93354C5.1467 4.24219 4.39209 4.63728 3.83571 5.34054C3.27934 6.0438 2.96677 6.99763 2.96677 7.99219V11.7422Z" stroke="#00A54F" stroke-width="2.5" stroke-linecap="round" stroke-linejoin="round"/>
</g>
</svg>
