<svg width="60" height="60" viewBox="0 0 60 60" fill="none" xmlns="http://www.w3.org/2000/svg">
<g id="2">
<circle id="Ellipse 71" cx="30" cy="30.0005" r="30" fill="#EFF6F1"/>
<g id="Fb">
<path id="Vector" fill-rule="evenodd" clip-rule="evenodd" d="M39.2828 30.2848C39.2828 25.1577 34.9657 21.0005 29.6414 21.0005C24.3171 21.0005 20 25.1577 20 30.2848C20 34.9187 23.5251 38.7597 28.1349 39.4568V32.9694H25.6863V30.2848H28.1349V28.2394C28.1349 25.9129 29.5747 24.6268 31.7767 24.6268C32.8317 24.6268 33.9353 24.8083 33.9353 24.8083V27.0933H32.7189C31.5219 27.0933 31.1475 27.8087 31.1475 28.544V30.2848H33.8212L33.3942 32.9694H31.1479V39.4576C35.7577 38.7609 39.2828 34.9199 39.2828 30.2848Z" fill="#274C5B"/>
</g>
</g>
</svg>
