<svg width="50" height="51" viewBox="0 0 50 51" fill="none" xmlns="http://www.w3.org/2000/svg">
<g id="Frame">
<path id="Vector" d="M31.25 22.3672C31.25 24.0248 30.5915 25.6145 29.4194 26.7866C28.2473 27.9587 26.6576 28.6172 25 28.6172C23.3424 28.6172 21.7527 27.9587 20.5806 26.7866C19.4085 25.6145 18.75 24.0248 18.75 22.3672C18.75 20.7096 19.4085 19.1199 20.5806 17.9478C21.7527 16.7757 23.3424 16.1172 25 16.1172C26.6576 16.1172 28.2473 16.7757 29.4194 17.9478C30.5915 19.1199 31.25 20.7096 31.25 22.3672Z" stroke="#00A54F" stroke-width="2.5" stroke-linecap="round" stroke-linejoin="round"/>
<path id="Vector_2" d="M38.5417 21.3255C38.5417 35.2127 23.9583 43.2005 23.9583 43.2005C23.9583 43.2005 9.375 35.2127 9.375 21.3255C9.375 17.4578 10.9115 13.7485 13.6464 11.0135C16.3813 8.27864 20.0906 6.74219 23.9583 6.74219C27.8261 6.74219 31.5354 8.27864 34.2703 11.0135C37.0052 13.7485 38.5417 17.4578 38.5417 21.3255Z" stroke="#00A54F" stroke-width="2.5" stroke-linecap="round" stroke-linejoin="round"/>
</g>
</svg>
