<svg width="47" height="46" viewBox="0 0 47 46" fill="none" xmlns="http://www.w3.org/2000/svg">
<g id="Frame">
<path id="Vector" d="M41.9914 13.1484V32.8359C41.9914 33.9548 41.5337 35.0279 40.7191 35.819C39.9045 36.6102 38.7996 37.0547 37.6475 37.0547H8.68787C7.53579 37.0547 6.43089 36.6102 5.61624 35.819C4.8016 35.0279 4.34393 33.9548 4.34393 32.8359V13.1484M41.9914 13.1484C41.9914 12.0296 41.5337 10.9565 40.7191 10.1653C39.9045 9.37416 38.7996 8.92969 37.6475 8.92969H8.68787C7.53579 8.92969 6.43089 9.37416 5.61624 10.1653C4.8016 10.9565 4.34393 12.0296 4.34393 13.1484M41.9914 13.1484V13.6041C41.9915 14.3243 41.8017 15.0326 41.4401 15.6615C41.0785 16.2903 40.5571 16.8188 39.9256 17.1966L25.4458 25.8497C24.7608 26.2594 23.9722 26.4764 23.1677 26.4764C22.3632 26.4764 21.5745 26.2594 20.8895 25.8497L6.40972 17.1984C5.77825 16.8207 5.25687 16.2922 4.89526 15.6634C4.53365 15.0345 4.34385 14.3262 4.34393 13.6059V13.1484" stroke="#00A54F" stroke-width="2.5" stroke-linecap="round" stroke-linejoin="round"/>
</g>
</svg>
