<svg width="60" height="60" viewBox="0 0 60 60" fill="none" xmlns="http://www.w3.org/2000/svg">
<g id="4">
<circle id="Ellipse 73" cx="30" cy="30.0005" r="30" fill="#EFF6F1"/>
<path id="Vector" d="M29.7966 20.0005C24.3866 20.0005 20 24.3852 20 29.7928C20 33.8015 22.4142 37.2462 25.8649 38.7632C25.8386 38.0812 25.8605 37.2594 26.0354 36.5162C26.2235 35.7206 27.295 31.1785 27.295 31.1785C27.295 31.1785 26.9801 30.5534 26.9801 29.631C26.9801 28.1797 27.8198 27.0955 28.8695 27.0955C29.7617 27.0955 30.1903 27.7644 30.1903 28.5643C30.1903 29.4605 29.6173 30.7982 29.3243 32.0397C29.0794 33.0802 29.8447 33.9239 30.8725 33.9239C32.7269 33.9239 33.9777 31.5414 33.9777 28.7174C33.9777 26.5709 32.5301 24.9666 29.9016 24.9666C26.932 24.9666 25.0776 27.1829 25.0776 29.6572C25.0776 30.5097 25.3313 31.113 25.7249 31.5763C25.9042 31.7906 25.9305 31.878 25.8649 32.1228C25.8168 32.302 25.7118 32.7348 25.6637 32.9097C25.5981 33.1588 25.3969 33.2463 25.1738 33.1545C23.8049 32.5949 23.1664 31.0998 23.1664 29.4124C23.1664 26.6321 25.515 23.2966 30.1684 23.2966C33.9077 23.2966 36.37 26.0026 36.37 28.9053C36.37 32.7479 34.2314 35.6157 31.0824 35.6157C30.0241 35.6157 29.0313 35.043 28.6901 34.396C28.6901 34.396 28.1216 36.6517 27.9991 37.0889C27.7936 37.8451 27.3868 38.597 27.0151 39.1872C27.9169 39.4531 28.8521 39.5886 29.7923 39.5894C35.2023 39.5894 39.5889 35.2047 39.5889 29.7971C39.5889 24.3895 35.2067 20.0005 29.7966 20.0005Z" fill="#274C5B"/>
</g>
</svg>
