<svg width="41" height="40" viewBox="0 0 41 40" fill="none" xmlns="http://www.w3.org/2000/svg">
<g id="Search Icon">
<circle id="Ellipse 59" cx="20.7288" cy="20" r="20" fill="#00A54F"/>
<path id="Vector" d="M29.0702 25.6374L25.6698 22.237C26.4885 21.1471 26.9304 19.8206 26.9289 18.4575C26.9289 14.9757 24.0962 12.1431 20.6145 12.1431C17.1328 12.1431 14.3001 14.9757 14.3001 18.4575C14.3001 21.9392 17.1328 24.7719 20.6145 24.7719C21.9776 24.7734 23.3042 24.3314 24.394 23.5127L27.7945 26.9132C27.9666 27.067 28.1911 27.1492 28.4219 27.1427C28.6527 27.1363 28.8722 27.0417 29.0355 26.8784C29.1987 26.7152 29.2933 26.4956 29.2998 26.2648C29.3062 26.0341 29.2241 25.8096 29.0702 25.6374ZM16.1042 18.4575C16.1042 17.5654 16.3687 16.6934 16.8643 15.9517C17.3599 15.21 18.0644 14.6319 18.8885 14.2905C19.7126 13.9491 20.6195 13.8598 21.4944 14.0338C22.3693 14.2079 23.173 14.6374 23.8038 15.2682C24.4345 15.899 24.8641 16.7026 25.0381 17.5776C25.2122 18.4525 25.1228 19.3593 24.7815 20.1835C24.4401 21.0076 23.862 21.712 23.1203 22.2076C22.3786 22.7032 21.5066 22.9678 20.6145 22.9678C19.4187 22.9663 18.2724 22.4907 17.4268 21.6451C16.5813 20.7996 16.1057 19.6532 16.1042 18.4575Z" fill="#FAFAFA"/>
</g>
</svg>
