<svg width="25" height="20" viewBox="0 0 25 20" fill="none" xmlns="http://www.w3.org/2000/svg">
<g id="Twiter">
<path id="Vector" d="M24.7556 2.94599C23.8581 3.33595 22.9086 3.59287 21.9369 3.70862C22.958 3.11067 23.726 2.16072 24.0967 1.03693C23.1312 1.60147 22.0767 1.99758 20.9784 2.20829C20.5159 1.72356 19.9596 1.33795 19.3434 1.07489C18.7272 0.811824 18.064 0.67681 17.394 0.678048C14.6815 0.678048 12.4863 2.84131 12.4863 5.50802C12.4844 5.87894 12.5269 6.24877 12.6129 6.60959C10.6678 6.5184 8.76315 6.02221 7.0208 5.15275C5.27845 4.28329 3.73677 3.05972 2.4944 1.5603C2.05854 2.29508 1.82804 3.13343 1.82698 3.98775C1.82698 5.66253 2.70076 7.14293 4.02015 8.01023C3.23845 7.99168 2.47276 7.78478 1.7881 7.4071V7.46692C1.7881 9.80963 3.48282 11.7586 5.72584 12.2022C5.30405 12.3146 4.86939 12.3716 4.43287 12.3717C4.12312 12.3722 3.81408 12.3421 3.51024 12.2819C4.1338 14.201 5.94865 15.5966 8.09846 15.6365C6.35158 16.9828 4.20688 17.7104 2.00143 17.7051C1.60996 17.7045 1.21885 17.6812 0.830078 17.6353C3.07369 19.0679 5.6817 19.8257 8.3437 19.8185C17.3836 19.8185 22.3222 12.4564 22.3222 6.07126C22.3222 5.86191 22.3167 5.65257 22.3067 5.4482C23.2653 4.76635 24.0946 3.91902 24.7556 2.94599Z" fill="#274C5B"/>
</g>
</svg>
