<svg width="60" height="60" viewBox="0 0 60 60" fill="none" xmlns="http://www.w3.org/2000/svg">
<g id="3">
<circle id="Ellipse 72" cx="30" cy="30.0005" r="30" fill="#EFF6F1"/>
<g id="Twiter">
<path id="Vector" d="M40.6602 23.9589C39.8852 24.2956 39.0652 24.5175 38.2261 24.6175C39.1079 24.1011 39.7711 23.2808 40.0912 22.3104C39.2575 22.7979 38.3469 23.1399 37.3984 23.3219C36.9991 22.9033 36.5187 22.5703 35.9866 22.3432C35.4546 22.116 34.8818 21.9994 34.3033 22.0005C31.9609 22.0005 30.0654 23.8685 30.0654 26.1713C30.0637 26.4916 30.1004 26.8109 30.1747 27.1225C28.4951 27.0438 26.8504 26.6153 25.3458 25.8645C23.8413 25.1137 22.51 24.0571 21.4372 22.7623C21.0608 23.3968 20.8618 24.1208 20.8608 24.8585C20.8608 26.3047 21.6154 27.583 22.7547 28.332C22.0797 28.316 21.4185 28.1373 20.8273 27.8112V27.8628C20.8273 29.8858 22.2907 31.5687 24.2276 31.9518C23.8634 32.0489 23.488 32.0981 23.1111 32.0982C22.8436 32.0986 22.5767 32.0727 22.3144 32.0207C22.8528 33.6778 24.42 34.883 26.2764 34.9174C24.7679 36.0799 22.9159 36.7083 21.0115 36.7036C20.6734 36.7031 20.3357 36.683 20 36.6434C21.9374 37.8805 24.1895 38.5349 26.4882 38.5286C34.2943 38.5286 38.5589 32.1713 38.5589 26.6576C38.5589 26.4769 38.5541 26.2961 38.5455 26.1196C39.3733 25.5308 40.0893 24.7991 40.6602 23.9589Z" fill="#274C5B"/>
</g>
</g>
</svg>
